<svg id="Layer_1" width='250px' data-name="Layer 1" xmlns="http://www.w3.org/2000/svg" viewBox="0 0 541.5 406.81"><defs><style>.cls-1,.cls-2{fill:#3f51b5;}.cls-1{stroke:#fff;stroke-miterlimit:10;stroke-width:2px;}.cls-3{fill:#fff;}</style></defs><title>dealpal</title><path class="cls-1" d="M444,805.91h25.91q41.64,0,41.64,40.4,0,41.31-41.64,41.3H444Zm10.81,72h14.88q17.78,0,24.25-8.28t6.46-23.33q0-14.65-6.44-22.68t-24.27-8H454.81Z" transform="translate(-443 -481.8)"/><path class="cls-2" d="M984.5,886.74l-33.37.06c-7.94,0-15.88,0-23.81,0-1.33,0-2.15-.13-2.15-1.86q.08-38.55,0-77.1c0-.38.07-.76.12-1.32h15.76v2.52q0,30.54,0,61.09c0,2.66,0,2.66,2.62,2.66q19.32,0,38.65,0c.71,0,1.42-.08,2.13-.12Z" transform="translate(-443 -481.8)"/><path class="cls-2" d="M709.27,733.54c-29.74,0-59.48-.14-89.21.09-8.25.06-11.61-7-10.84-12.41.8-5.63,2.43-11.14,3.8-16.67q6.88-27.66,13.88-55.28c.4-1.59.13-2.41-1.3-3.28a15.64,15.64,0,0,1-6.73-8.34,2.27,2.27,0,0,0-2.69-1.77,70,70,0,0,1-7.8,0c-4.65-.35-6.32,2.87-6.27,6.33.09,5.85,0,11.71,0,17.57a6.51,6.51,0,0,1-5.74,6.55,6.65,6.65,0,0,1-7.08-4.63,7.61,7.61,0,0,1-.27-2.29c0-6.31,0-12.63,0-18.94a18.1,18.1,0,0,1,18-18c3.78,0,7.55.06,11.32,0a3.18,3.18,0,0,0,2.17-1.15,17.89,17.89,0,0,1,15.29-7.86q73.39,0,146.8,0A18.08,18.08,0,0,1,798,621.25a3.36,3.36,0,0,0,2.32,1.19c3.58.13,7.16.08,10.74,0a4.93,4.93,0,0,0,5.25-5.25c0-6.18,0-12.36,0-18.54A6.65,6.65,0,0,1,827,593.42a6.13,6.13,0,0,1,2.54,5.23c0,6.57.11,13.15,0,19.71-.22,9.89-8.27,17.44-18.51,17.55-3.06,0-6.12.05-9.18,0a1.74,1.74,0,0,0-2,1.37,16.69,16.69,0,0,1-7.35,9c-1.19.7-1.2,1.48-.92,2.57q4.18,16.61,8.34,33.22c3.09,12.33,6.2,24.66,9.25,37a12.91,12.91,0,0,1-1.15,9.08,9,9,0,0,1-8.75,5.38Q754.28,733.5,709.27,733.54Zm28.82-95.07a4.12,4.12,0,0,0-4.3,1.1c-7.71,7.64-15.54,15.18-23.27,22.8-1,1-1.64,1-2.66,0-4.63-4.67-9.32-9.26-14-13.87-3.2-3.14-6.34-6.36-9.68-9.35-.76-.67-2.24-.64-3.39-.67a4.66,4.66,0,0,0-.56,2.17c-.08,2.34,0,4.68,0,7,0,15.1,0,30.19,0,45.29,0,1.71.45,2.3,2.19,2.2a58,58,0,0,1,7.22,0c1.89.12,2.44-.53,2.42-2.4-.08-9.31,0-18.61,0-27.92,0-.73.06-1.47.09-2.21l.84-.56a8.2,8.2,0,0,0,1.07,1.88q6.42,6.55,12.9,13c1.93,1.94,3.2,1.9,5.08,0q6.55-6.69,13.15-13.35c.4-.41.88-.76,1.62-1.38v13.55c0,5.79,0,11.58,0,17.37,0,.65.62,1.83,1,1.85,3.42.14,6.85.08,10.34.08Z" transform="translate(-443 -481.8)"/><path class="cls-2" d="M701.72,499.92c-3.91-6.85-3.56-12.08.84-15.72a10.55,10.55,0,0,1,13.47.06c4.49,3.75,4.79,8.74.83,15.55,2.66.47,5.31.75,7.85,1.4,31.16,8,50.2,27.81,56.81,59.26,1.12,5.34.8,11,1,16.5.14,3.64.1,7.29,0,10.93,0,1.57.56,2.12,2,2a11.56,11.56,0,0,1,2,.06,5.38,5.38,0,0,1,5.13,5.93,5.27,5.27,0,0,1-5.54,5.31q-24.69,0-49.38,0-51.93,0-103.85,0a5.68,5.68,0,0,1-4.86-9.14c1.27-1.74,3.1-2.2,5.15-2.22,2.72,0,2.69,0,2.73-2.79.09-6.77,0-13.54.38-20.28a68,68,0,0,1,12.56-35.34c12.17-17.39,28.85-27.73,49.78-31.19C699.55,500.14,700.51,500.06,701.72,499.92Zm37,71a20.51,20.51,0,0,0,20.56-20.4,20.58,20.58,0,0,0-41.16-.12A20.47,20.47,0,0,0,738.72,571Zm-58.82,0a20.3,20.3,0,0,0,20.44-20.4,20.54,20.54,0,0,0-20.52-20.64,20.77,20.77,0,0,0-20.54,20.52A20.53,20.53,0,0,0,679.9,571Zm28.33,20.73c3.58-.32,6.5-.44,9.38-.87,5.18-.78,9-3.42,11-8.44.6-1.52.54-3.14-.75-4.11a5,5,0,0,0-3.63-1.12,5.6,5.6,0,0,0-3,2.68c-1.07,2-2.51,3.21-4.67,3.34-4.14.23-8.29.45-12.43.37-3.52-.07-6.77-.77-8.28-4.8-.71-1.88-3.09-2.29-4.88-1.42a3.75,3.75,0,0,0-1.94,4.9,12.18,12.18,0,0,0,9.2,8.16C701.74,591.1,705.32,591.32,708.23,591.68Z" transform="translate(-443 -481.8)"/><path class="cls-2" d="M765.27,806.5c.59,0,1-.13,1.47-.13,13.08,0,26.17-.24,39.24.13,8.59.24,16.53,2.9,22.51,9.58,4.93,5.51,6.34,12.2,6.09,19.39-.55,15.47-10.91,23.93-23.63,26-6.29,1-12.81.82-19.22,1.06-3.37.13-6.75,0-10.3,0,0,.94-.12,1.62-.12,2.31,0,6.7,0,13.41,0,20.11,0,1.36-.41,1.83-1.77,1.81-4.23-.06-8.46,0-12.69,0-1.17,0-1.74-.27-1.74-1.63q.06-38.85,0-77.7C765.17,807.22,765.22,807,765.27,806.5Zm16.16,13.75v28.54a3.35,3.35,0,0,0,.66.18c7.28,0,14.56.12,21.84-.09,3.72-.11,7.38-1.11,10.17-3.82,4.44-4.32,5-9.68,3.35-15.31s-6.21-8.51-11.77-9c-6.38-.57-12.83-.36-19.26-.48C784.81,820.23,783.2,820.25,781.43,820.25Z" transform="translate(-443 -481.8)"/><path class="cls-2" d="M828.24,886.47c1.37-2.69,2.7-5.34,4-8l35.6-69.35a12.94,12.94,0,0,0,.72-1.38c.4-1.06,1.12-1.71,2.22-1.35a3.48,3.48,0,0,1,2,1.38c5.34,10.18,10.6,20.41,15.87,30.63q11.7,22.7,23.37,45.39c.44.85.82,1.73,1.37,2.88-1,0-1.79.11-2.54.11-4.62,0-9.24,0-13.86,0a2.19,2.19,0,0,1-2.36-1.5c-1.18-2.68-2.54-5.27-3.73-7.94a2.38,2.38,0,0,0-2.49-1.66q-17.67.07-35.33,0a2.37,2.37,0,0,0-2.52,1.62c-1.15,2.68-2.37,5.35-3.69,7.95-.33.63-1.15,1.42-1.75,1.43-5.4.11-10.8.06-16.2,0C828.77,886.76,828.6,886.62,828.24,886.47Zm56.11-22.59c-.19-.57-.25-.82-.36-1-4-8.6-8-17.2-12-25.79a8.07,8.07,0,0,0-1.31-1.52,7.71,7.71,0,0,0-1.3,1.53q-6,12.8-11.93,25.61a9.83,9.83,0,0,0-.37,1.22Z" transform="translate(-443 -481.8)"/><path class="cls-2" d="M539.68,814.76v28c1,.06,1.87.16,2.76.16,12.82,0,25.64,0,38.46,0,1.91,0,2.73.42,2.53,2.49s0,3.87,0,6H539.76v26.93c.94.06,1.83.15,2.73.15h44.12c2.75,0,2.75,0,2.76,2.82,0,1.24-.06,2.48,0,3.71s-.55,1.8-1.86,1.8q-27.63,0-55.25,0c-1.67,0-1.89-.73-1.89-2.12,0-15.43,0-30.85,0-46.28V806.48c.9-.05,1.59-.12,2.29-.12,18.09,0,36.18,0,54.28,0,1.83,0,2.63.45,2.42,2.38a21.17,21.17,0,0,0,0,3.9c.14,1.68-.42,2.21-2.18,2.2-15-.07-30.06,0-45.1,0Z" transform="translate(-443 -481.8)"/><path class="cls-2" d="M601.91,886.8c1.16-2.4,2.12-4.43,3.11-6.45q17.79-36.3,35.61-72.59a2.51,2.51,0,0,1,1.79-1.29,2.62,2.62,0,0,1,1.72,1.42q15.23,30.72,30.36,61.49l7.59,15.38c.25.52.46,1,.89,2-2.61,0-5-.15-7.31.05a3.87,3.87,0,0,1-4.47-2.65c-1.43-3.27-3.24-6.37-4.8-9.58a2.57,2.57,0,0,0-2.66-1.71q-21.37.09-42.75,0a2.33,2.33,0,0,0-2.42,1.45c-1.81,3.67-3.74,7.28-5.54,11a2.3,2.3,0,0,1-2.41,1.5C607.85,886.76,605.07,886.8,601.91,886.8Zm58.8-22.75c-.23-.66-.33-1.09-.52-1.49q-8.21-17.85-16.46-35.7a8,8,0,0,0-1.4-1.64,8.79,8.79,0,0,0-1.38,1.7q-8.22,17.85-16.37,35.75a10.25,10.25,0,0,0-.37,1.38Z" transform="translate(-443 -481.8)"/><path class="cls-2" d="M709.18,741.58h68.91c2.76,0,4.9,1.46,5.55,3.74.7,2.47-.11,5.19-2.27,6.3a10.25,10.25,0,0,1-4.47,1q-47.14.09-94.28,0H641.23c-4.22,0-6.7-2.3-6.53-6a5.36,5.36,0,0,1,5-5.08c.58,0,1.17,0,1.76,0Z" transform="translate(-443 -481.8)"/><path class="cls-2" d="M695.47,846.58V808.9c0-2.53,0-2.54,2.58-2.54,1.63,0,3.26,0,4.88,0,1.16-.05,1.71.36,1.64,1.56,0,.58,0,1.17,0,1.75q0,32.7,0,65.4c0,3.77-.31,3.42,3.52,3.42h40.79c2.82,0,2.82,0,2.82,2.71,0,5.61,0,5.61-5.57,5.61H698.89c-3.42,0-3.42,0-3.42-3.33Z" transform="translate(-443 -481.8)"/><path class="cls-2" d="M709.19,772.2h-42c-3.58,0-6.08-2-6.34-5a5.48,5.48,0,0,1,5.42-6.06c2.73,0,5.47,0,8.2,0H751.6c3.81,0,6.15,2.3,6,5.83-.13,3.16-2.5,5.25-6.06,5.25q-17.17,0-34.35,0Z" transform="translate(-443 -481.8)"/><path class="cls-2" d="M738.69,538.09a12.41,12.41,0,1,1,0,24.82,12.41,12.41,0,0,1,0-24.82Z" transform="translate(-443 -481.8)"/><path class="cls-2" d="M667.47,550.49a12.42,12.42,0,1,1,12.3,12.42A12.22,12.22,0,0,1,667.47,550.49Z" transform="translate(-443 -481.8)"/><rect class="cls-2" x="223.24" y="143.7" width="101.53" height="91.38"/><path class="cls-3" d="M686.72,637h17.84q28.65,0,28.65,27.81,0,28.41-28.65,28.42H686.72Zm7.44,49.55H704.4q12.24,0,16.69-5.69t4.45-16q0-10.1-4.43-15.62t-16.71-5.52H694.16Z" transform="translate(-443 -481.8)"/></svg>
